Coordinates
version=1
nRows=29
nColumns=24
inDegrees=yes

Units are S.I. units (second, meters, Newtons, ...)
Angles are in degrees.

endheader
time	pelvis_tilt	pelvis_list	pelvis_rotation	pelvis_tx	pelvis_ty	pelvis_tz	hip_flexion_r	hip_adduction_r	hip_rotation_r	knee_angle_r	ankle_angle_r	subtalar_angle_r	mtp_angle_r	hip_flexion_l	hip_adduction_l	hip_rotation_l	knee_angle_l	ankle_angle_l	subtalar_angle_l	mtp_angle_l	lumbar_extension	lumbar_bending	lumbar_rotation
      1.09183333	     -0.77915574	      3.29443974	     -5.87602383	     -0.03137144	      0.99256575	      0.30180747	    -14.67549356	     -2.24172003	      2.71249129	     -9.09046518	     15.03664285	     -5.42450539	      5.89544272	     22.33055273	      1.66461922	     -8.60350987	      3.67730944	      0.64616689	     -8.03774234	      8.17439007	     -2.86632546	     -3.51173934	     13.12198852
      1.09600000	     -0.77605136	      3.41464132	     -5.95353848	     -0.02522397	      0.99200420	      0.30143035	    -14.78651793	     -2.45512339	      2.66498768	     -9.59415245	     15.07082804	     -5.24104088	      5.94945934	     22.35271781	      1.80174906	     -8.52865570	      3.42777245	      0.64720647	     -8.31298971	      8.19547260	     -2.81504587	     -3.67217970	     13.24020701
      1.10016667	     -0.74341664	      3.54917604	     -6.03066072	     -0.01905173	      0.99151300	      0.30102063	    -14.90502545	     -2.69093789	      2.57833521	    -10.14440833	     15.09358220	     -5.01808065	      6.03842444	     22.34797257	      1.96154546	     -8.43648806	      3.10654202	      0.57516960	     -8.65417009	      8.23174756	     -2.79717234	     -3.83710776	     13.37894692
      1.10433333	     -0.74379161	      3.71238499	     -6.11041170	     -0.01280454	      0.99102712	      0.30064606	    -14.99102540	     -2.94784611	      2.57389073	    -10.68739228	     15.07953196	     -4.90803468	      6.11580372	     22.38373286	      2.14378384	     -8.34018357	      2.70670431	      0.52359639	     -8.95284819	      8.26554191	     -2.72927496	     -4.06131969	     13.47510678
      1.10850000	     -0.71418505	      3.87209613	     -6.18559098	     -0.00655538	      0.99060584	      0.30020235	    -15.07157626	     -3.21196047	      2.48049260	    -11.30453304	     15.06559494	     -4.68198385	      6.25458285	     22.38910506	      2.33669002	     -8.20151511	      2.25922260	      0.34997570	     -9.38037179	      8.32623203	     -2.69614640	     -4.25330878	     13.62326657
      1.11266667	     -0.70156892	      4.05164284	     -6.26303242	     -0.00024792	      0.99020635	      0.29977523	    -15.12792981	     -3.49095981	      2.43979790	    -11.93149641	     15.00807319	     -4.54177577	      6.42329144	     22.41239757	      2.54758470	     -8.05131765	      1.76170280	      0.15868392	     -9.79683698	      8.40076059	     -2.63239839	     -4.48184773	     13.73684220
      1.11683333	     -0.65710930	      4.24194037	     -6.32259376	      0.00610452	      0.98987469	      0.29931179	    -15.20917772	     -3.78101849	      2.36348938	    -12.58068484	     14.89092133	     -4.39788744	      6.79429839	     22.39405521	      2.78626677	     -7.82370125	      1.23927210	     -0.04579439	    -10.27983096	      8.56673401	     -2.60203146	     -4.72947133	     13.84461704
      1.12100000	     -0.65866642	      4.44560759	     -6.40945851	      0.01249049	      0.98953123	      0.29886599	    -15.21083225	     -4.08578087	      2.35295952	    -13.27891529	     14.79660266	     -4.29410534	      7.00590749	     22.44002756	      3.02098248	     -7.72503662	      0.65765973	     -0.36144767	    -10.64911974	      8.65624850	     -2.51128752	     -4.97843439	     13.94867016
      1.12516667	     -0.63389261	      4.65666456	     -6.47536954	      0.01891571	      0.98925024	      0.29837726	    -15.22498005	     -4.39724409	      2.29080361	    -14.01283283	     14.64061889	     -4.17324775	      7.29268196	     22.44423813	      3.28196443	     -7.51950155	      0.07610058	     -0.68588918	    -11.12418054	      8.77468054	     -2.44368309	     -5.24224815	     14.06100548
      1.12933333	     -0.60866549	      4.87109293	     -6.52849852	      0.02539067	      0.98900811	      0.29786957	    -15.24369287	     -4.70502113	      2.25579481	    -14.72833489	     14.33562942	     -4.22759363	     11.38077576	     22.44886738	      3.55225420	     -7.31229305	     -0.52877031	     -1.05948037	    -11.59395877	     10.43388222	     -2.37469362	     -5.51539760	     14.09309214
      1.13350000	     -0.55628340	      5.09794059	     -6.59856955	      0.03186747	      0.98883367	      0.29735722	    -15.23945626	     -5.03683936	      2.19398497	    -15.54826656	     14.13235328	     -4.10117108	     11.42314456	     22.42766347	      3.83258018	     -7.18790398	     -1.15326941	     -1.44513450	    -11.92674731	     10.45129244	     -2.33757262	     -5.79726856	     14.21862150
      1.13766667	     -0.52365678	      5.32489581	     -6.65269510	      0.03837845	      0.98866692	      0.29681179	    -15.20048750	     -5.36054197	      2.13509530	    -16.39401189	     13.85981671	     -4.02986075	     11.51478929	     22.41827415	      4.12175686	     -6.99214513	     -1.77322055	     -1.87696626	    -12.36028809	     10.47929798	     -2.26923061	     -6.07767368	     14.29759256
      1.14183333	     -0.45794003	      5.55495621	     -6.68321074	      0.04492778	      0.98859145	      0.29623251	    -15.19772607	     -5.68200152	      2.06175539	    -17.23685617	     13.50157408	     -4.01803251	     11.93270225	     22.35822644	      4.43325402	     -6.73480413	     -2.37083255	     -2.36249790	    -12.87453039	     10.58767056	     -2.24130635	     -6.37104979	     14.36271183
      1.14600000	     -0.44638677	      5.78561008	     -6.74039243	      0.05146179	      0.98846717	      0.29565460	    -15.06900616	     -6.00924745	      2.00716303	    -18.19956745	     13.17005752	     -3.94632758	     12.10531528	     22.38291845	      4.71868174	     -6.62960615	     -3.03391284	     -2.78712045	    -13.16210159	     10.62157010	     -2.14219977	     -6.64539167	     14.42326521
      1.15016667	     -0.40654813	      6.01837142	     -6.77238790	      0.05801907	      0.98842316	      0.29504785	    -14.96476094	     -6.33269518	      1.92865397	    -19.17052784	     12.76635576	     -3.90035799	     12.37716703	     22.36175563	      5.02467480	     -6.46091463	     -3.66908558	     -3.26223021	    -13.55886389	     10.66755747	     -2.07885862	     -6.93519760	     14.48788454
      1.15433333	     -0.35583574	      6.25537135	     -6.81364369	      0.06459131	      0.98843175	      0.29443589	    -14.83279218	     -6.66525084	      1.85593219	    -20.20667491	     12.30051838	     -3.88872839	     12.67634168	     22.30985048	      5.33220941	     -6.32580547	     -4.26807606	     -3.73436474	    -13.84470867	     10.71029497	     -2.01897193	     -7.21833465	     14.51377624
      1.15850000	     -0.28791008	      6.49048489	     -6.82115872	      0.07118406	      0.98851028	      0.29381227	    -14.72980987	     -6.97922898	      1.79415833	    -21.21963569	     11.72690254	     -3.95667483	     12.80975927	     22.27066036	      5.64046097	     -6.25786855	     -4.94682422	     -4.09801858	    -13.98727139	     10.72493799	     -1.99282735	     -7.53668908	     14.52492493
      1.16266667	     -0.23059714	      6.70861076	     -6.82760944	      0.07771816	      0.98859028	      0.29310320	    -14.54538287	     -7.29173701	      1.66610208	    -22.34973099	     11.12364798	     -4.00267030	     18.11345755	     22.21309562	      5.94587613	     -6.08703155	     -5.55679051	     -4.55969662	    -14.35702939	     11.27547150	     -1.95288232	     -7.78123406	     14.50070519
      1.16683333	     -0.15036444	      6.94407740	     -6.83785159	      0.08428612	      0.98875240	      0.29245288	    -14.37557034	     -7.61291654	      1.59111397	    -23.49134659	     10.48430013	     -4.05038687	     18.13142951	     22.14288873	      6.25392391	     -6.06409683	     -6.20390972	     -4.90081523	    -14.43569934	     11.27422920	     -1.93922307	     -8.08857403	     14.52468851
      1.17100000	     -0.11080421	      7.17014335	     -6.84906691	      0.09080713	      0.98888309	      0.29175045	    -14.09765382	     -7.93140804	      1.48891780	    -24.74473446	      9.86508183	     -4.03463627	     18.20673992	     22.09835312	      6.55268698	     -6.00252461	     -6.80997312	     -5.26565845	    -14.59231156	     11.27157329	     -1.87188829	     -8.34262185	     14.54085862
      1.17516667	     -0.05118866	      7.38999781	     -6.83848584	      0.09731368	      0.98908177	      0.29103908	    -13.83005385	     -8.23448189	      1.39540207	    -26.00927541	      9.16477227	     -4.06989401	     18.30805521	     22.03615076	      6.85120573	     -5.95060658	     -7.43456234	     -5.56554811	    -14.70878715	     11.26679588	     -1.84079936	     -8.60722369	     14.52984228
      1.17933333	     -0.01475759	      7.60224804	     -6.81573181	      0.10377726	      0.98926135	      0.29028230	    -13.49791674	     -8.52974452	      1.29375923	    -27.33759928	      8.44912701	     -4.06482811	     18.70804330	     21.99989663	      7.14657918	     -5.86686423	     -8.06919094	     -5.79874533	    -14.88566621	     11.24665879	     -1.79079523	     -8.86129838	     14.52153611
      1.18350000	      0.04529901	      7.81531133	     -6.79640742	      0.11021413	      0.98952411	      0.28956584	    -13.16439158	     -8.82154206	      1.22273821	    -28.69676782	      7.68582301	     -4.15785091	     18.99104393	     21.93221691	      7.43147179	     -5.89386686	     -8.68594714	     -6.05823622	    -14.87073198	     11.22454536	     -1.77350844	     -9.12574013	     14.46280821
      1.18766667	      0.18117891	      8.01400335	     -6.75519265	      0.11661929	      0.98991015	      0.28879577	    -12.90341027	     -9.10541501	      1.11079043	    -30.06512915	      6.85188977	     -4.26061873	     19.03512568	     21.76921851	      7.72859051	     -5.85876557	     -9.29079428	     -6.16871861	    -14.88640943	     11.22016515	     -1.85499038	     -9.36455294	     14.43387636
      1.19183333	      0.22523811	      8.23702991	     -6.73596197	      0.12301383	      0.99020934	      0.28807187	    -12.48564989	     -9.40859916	      1.06675952	    -31.51212997	      6.02290807	     -4.33771874	     19.15063055	     21.67587391	      8.02879067	     -5.83994646	     -9.82974713	     -6.31341614	    -14.85841570	     11.20672225	     -1.81336616	     -9.64688279	     14.35858484
      1.19600000	      0.24640532	      8.42392430	     -6.68504316	      0.12929497	      0.99047447	      0.28729222	    -12.00865293	     -9.66583157	      1.00326792	    -33.01846960	      5.23483689	     -4.42503369	     19.42125371	     21.63971048	      8.29250749	     -5.85156882	    -10.44506001	     -6.39248173	    -14.84099518	     11.16786426	     -1.76968619	     -9.86355861	     14.27281797
      1.20016667	      0.31600712	      8.62236398	     -6.64625397	      0.13557383	      0.99084433	      0.28653058	    -11.56494237	     -9.94336588	      0.95150552	    -34.53293508	      4.40263147	     -4.56566251	     19.65472239	     21.51133194	      8.57736113	     -5.85529821	    -10.97811857	     -6.43585015	    -14.79608361	     11.12533561	     -1.77232658	    -10.09074069	     14.19336348
      1.20433333	      0.41720754	      8.81783331	     -6.60038797	      0.14180473	      0.99128688	      0.28577057	    -11.13856686	    -10.21544831	      0.90937906	    -36.05669283	      3.55942830	     -4.69307066	     19.73219615	     21.32591841	      8.87428301	     -5.80270553	    -11.47216607	     -6.39683917	    -14.77873665	     11.10716367	     -1.82830944	    -10.33241503	     14.12599827
      1.20850000	      0.49185510	      9.01035214	     -6.55075792	      0.14796104	      0.99169292	      0.28500623	    -10.64877570	    -10.47916211	      0.88719235	    -37.62424765	      2.76988082	     -4.84808751	     19.80178059	     21.17081277	      9.16274786	     -5.78042032	    -11.96638456	     -6.36124097	    -14.75525660	     11.08265751	     -1.86135410	    -10.55785617	     14.03055081
